<?xml version="1.0"?>
<svg xmlns="http://www.w3.org/2000/svg" xmlns:xlink="http://www.w3.org/1999/xlink" xmlns:svgjs="http://svgjs.com/svgjs" version="1.1" width="512" height="512" x="0" y="0" viewBox="0 0 511.999 511.999" style="enable-background:new 0 0 512 512" xml:space="preserve" class=""><g>
<path xmlns="http://www.w3.org/2000/svg" style="" d="M483.573,375.929H90.405c-15.7,0-28.427-12.727-28.427-28.427V92.884  c0-15.7,12.727-28.427,28.427-28.427h393.167c15.7,0,28.427,12.727,28.427,28.427v254.619  C512,363.202,499.273,375.929,483.573,375.929z" fill="#2b84e9" data-original="#2b84e9" class=""/>
<rect xmlns="http://www.w3.org/2000/svg" x="243.91" y="373.419" style="" width="86.16" height="74.58" fill="#363c44" data-original="#363c44" class=""/>
<g xmlns="http://www.w3.org/2000/svg">
	<rect x="243.91" y="373.419" style="" width="86.16" height="19.943" fill="#292e33" data-original="#292e33" class=""/>
	<rect x="243.91" y="431.399" style="" width="86.16" height="14.08" fill="#292e33" data-original="#292e33" class=""/>
</g>
<path xmlns="http://www.w3.org/2000/svg" style="" d="M61.978,347.502c0,15.7,12.727,28.427,28.427,28.427h393.167c15.7,0,28.427-12.727,28.427-28.427  v-59.164H61.978V347.502z" fill="#555e6b" data-original="#555e6b"/>
<circle xmlns="http://www.w3.org/2000/svg" style="" cx="472.68" cy="330.919" r="7.773" fill="#49bc6e" data-original="#49bc6e"/>
<path xmlns="http://www.w3.org/2000/svg" style="" d="M199.231,64.456H91.394c-15.7,0-28.427,12.727-28.427,28.427v254.618  c0,15.7,12.727,28.427,28.427,28.427H199.23V64.456H199.231z" fill="#2676c6" data-original="#2676c6"/>
<g xmlns="http://www.w3.org/2000/svg">
	<circle style="" cx="444.69" cy="330.919" r="7.773" fill="#49bc6e" data-original="#49bc6e"/>
	<circle style="" cx="417.06" cy="330.919" r="7.773" fill="#49bc6e" data-original="#49bc6e"/>
</g>
<path xmlns="http://www.w3.org/2000/svg" style="" d="M62.967,288.338v59.164c0,15.7,12.727,28.427,28.427,28.427H199.23v-87.592H62.967V288.338z" fill="#434b56" data-original="#434b56"/>
<path xmlns="http://www.w3.org/2000/svg" style="" d="M155.845,476.962H13.115C5.872,476.962,0,471.09,0,463.846V48.152  c0-7.243,5.872-13.115,13.115-13.115h142.729c7.243,0,13.115,5.872,13.115,13.115v415.695  C168.96,471.09,163.088,476.962,155.845,476.962z" fill="#555e6b" data-original="#555e6b"/>
<path xmlns="http://www.w3.org/2000/svg" style="" d="M364.424,476.962h-154.87c-1.606,0-2.908-1.302-2.908-2.908v-12.408  c0-8.927,7.237-16.164,16.164-16.164h128.358c8.927,0,16.164,7.237,16.164,16.164v12.408  C367.332,475.66,366.03,476.962,364.424,476.962z" fill="#363c44" data-original="#363c44" class=""/>
<circle xmlns="http://www.w3.org/2000/svg" style="" cx="286.99" cy="329.189" r="15.182" fill="#ffe92f" data-original="#ffe92f"/>
<g xmlns="http://www.w3.org/2000/svg">
	<path style="" d="M49.828,392.566l-19.356-96.779c-0.298-1.49-0.949-2.887-1.898-4.073L0,255.999v199.198   l47.663-54.512C49.607,398.462,50.407,395.462,49.828,392.566z" fill="#2e343a" data-original="#2e343a"/>
	<path style="" d="M119.132,392.566l19.356-96.779c0.298-1.49,0.949-2.887,1.898-4.073l28.574-35.715v199.198   l-47.663-54.512C119.353,398.462,118.553,395.462,119.132,392.566z" fill="#2e343a" data-original="#2e343a"/>
</g>
<g xmlns="http://www.w3.org/2000/svg">
	<path style="" d="M66.552,454.334H48.199c-4.293,0-7.773-3.48-7.773-7.773s3.48-7.773,7.773-7.773h18.352   c4.293,0,7.773,3.48,7.773,7.773C74.324,450.854,70.845,454.334,66.552,454.334z" fill="#96abbc" data-original="#96abbc"/>
	<path style="" d="M114.751,454.334H96.398c-4.293,0-7.773-3.48-7.773-7.773s3.48-7.773,7.773-7.773h18.352   c4.293,0,7.773,3.48,7.773,7.773C122.524,450.854,119.044,454.334,114.751,454.334z" fill="#96abbc" data-original="#96abbc"/>
</g>
<circle xmlns="http://www.w3.org/2000/svg" style="" cx="82.45" cy="281.859" r="20.469" fill="#ff7b05" data-original="#ff7b05"/>
<path xmlns="http://www.w3.org/2000/svg" style="" d="M26.476,35.036L43.49,55.604c3.2,3.869,7.96,6.109,12.981,6.109h55.303  c4.902,0,9.561-2.135,12.761-5.849l17.949-20.828C142.484,35.036,26.476,35.036,26.476,35.036z" fill="#2e343a" data-original="#2e343a"/>
<g xmlns="http://www.w3.org/2000/svg">
	<path style="" d="M136.748,116.221H32.211c-3.168,0-5.735-2.568-5.735-5.735v-15.4c0-3.168,2.568-5.735,5.735-5.735   h104.537c3.168,0,5.735,2.568,5.735,5.735v15.4C142.484,113.653,139.916,116.221,136.748,116.221z" fill="#707d8c" data-original="#707d8c"/>
	<path style="" d="M136.748,172.292H32.211c-3.168,0-5.735-2.568-5.735-5.735v-15.4c0-3.168,2.568-5.735,5.735-5.735   h104.537c3.168,0,5.735,2.568,5.735,5.735v15.4C142.484,169.723,139.916,172.292,136.748,172.292z" fill="#707d8c" data-original="#707d8c"/>
</g>
<g xmlns="http://www.w3.org/2000/svg">
</g>
<g xmlns="http://www.w3.org/2000/svg">
</g>
<g xmlns="http://www.w3.org/2000/svg">
</g>
<g xmlns="http://www.w3.org/2000/svg">
</g>
<g xmlns="http://www.w3.org/2000/svg">
</g>
<g xmlns="http://www.w3.org/2000/svg">
</g>
<g xmlns="http://www.w3.org/2000/svg">
</g>
<g xmlns="http://www.w3.org/2000/svg">
</g>
<g xmlns="http://www.w3.org/2000/svg">
</g>
<g xmlns="http://www.w3.org/2000/svg">
</g>
<g xmlns="http://www.w3.org/2000/svg">
</g>
<g xmlns="http://www.w3.org/2000/svg">
</g>
<g xmlns="http://www.w3.org/2000/svg">
</g>
<g xmlns="http://www.w3.org/2000/svg">
</g>
<g xmlns="http://www.w3.org/2000/svg">
</g>
</g></svg>
